<svg width="18" height="19" viewBox="0 0 18 19" fill="none" xmlns="http://www.w3.org/2000/svg">
<path d="M-0.000976562 9.1515C-0.000976562 4.63701 3.65874 0.977295 8.17323 0.977295H9.03367C13.5482 0.977295 17.2079 4.63701 17.2079 9.1515V10.0119C17.2079 14.5264 13.5482 18.1861 9.03367 18.1861H8.17323C3.65874 18.1861 -0.000976562 14.5264 -0.000976562 10.0119V9.1515Z" fill="#FBFBFB"/>
<path fill-rule="evenodd" clip-rule="evenodd" d="M9.03367 1.27845H8.17323C3.82506 1.27845 0.300178 4.80333 0.300178 9.1515V10.0119C0.300178 14.3601 3.82506 17.885 8.17323 17.885H9.03367C13.3818 17.885 16.9067 14.3601 16.9067 10.0119V9.1515C16.9067 4.80333 13.3818 1.27845 9.03367 1.27845ZM8.17323 0.977295C3.65874 0.977295 -0.000976562 4.63701 -0.000976562 9.1515V10.0119C-0.000976562 14.5264 3.65874 18.1861 8.17323 18.1861H9.03367C13.5482 18.1861 17.2079 14.5264 17.2079 10.0119V9.1515C17.2079 4.63701 13.5482 0.977295 9.03367 0.977295H8.17323Z" fill="#555555"/>
<path d="M4.12117 14.5633C4.0522 14.5631 3.98401 14.5487 3.92093 14.5208C3.85786 14.4929 3.80128 14.4522 3.75479 14.4012C3.70746 14.3507 3.67135 14.2907 3.64882 14.2253C3.62628 14.1598 3.61784 14.0903 3.62405 14.0214L3.74584 12.6821L9.37231 7.05765L11.1307 8.81549L5.50567 14.4395L4.16641 14.5613C4.15137 14.5627 4.13627 14.5633 4.12117 14.5633ZM11.4816 8.46402L9.72378 6.70619L10.7782 5.65178C10.8244 5.60556 10.8792 5.56889 10.9395 5.54388C10.9999 5.51886 11.0646 5.50598 11.1299 5.50598C11.1952 5.50598 11.2599 5.51886 11.3203 5.54388C11.3806 5.56889 11.4355 5.60556 11.4816 5.65178L12.536 6.70619C12.5822 6.75236 12.6189 6.80718 12.6439 6.86753C12.669 6.92788 12.6818 6.99257 12.6818 7.0579C12.6818 7.12323 12.669 7.18792 12.6439 7.24827C12.6189 7.30862 12.5822 7.36345 12.536 7.40962L11.4821 8.46353L11.4816 8.46402Z" fill="#555555"/>
</svg>
